<?xml version="1.0" encoding="UTF-8" standalone="no"?>
<!DOCTYPE svg PUBLIC "-//W3C//DTD SVG 1.1//EN"
"http://www.w3.org/Graphics/SVG/1.1/DTD/svg11.dtd">


<!-- Page 1 -->
<svg x="0" y="0" width="909" height="1286" viewBox="0 0 909 1286" version="1.1" xmlns="http://www.w3.org/2000/svg" xmlns:xlink="http://www.w3.org/1999/xlink"
style="display: block;margin-left: auto;margin-right: auto;">
<defs>

<style type="text/css"><![CDATA[

.g0_1{
fill: none;
stroke: #000000;
stroke-width: 0.33;
stroke-linecap: butt;
stroke-linejoin: miter;
stroke-miterlimit: 4;
}
.g1_1{
fill: none;
stroke: #FF0000;
stroke-width: 0.33;
stroke-linecap: butt;
stroke-linejoin: miter;
stroke-miterlimit: 4;
}
.g2_1{
fill: #EE1D23;
}
.g3_1{
fill: #FFFFFF;
}
.g4_1{
fill: none;
stroke: #241C1C;
stroke-width: 0.33;
stroke-linecap: butt;
stroke-linejoin: miter;
stroke-miterlimit: 4;
}


]]></style>

</defs>
<path d="M0,0
L0,1286
L909,1286
L909,0 Z " 
fill="#FFFFFF" stroke="none" />
<path d="M95.3,245C74.5,271,62.9,304.9,62.9,340.2V483h64.8c0,0,0,-142.8,0,-142.8C127.6,305,116.1,271,95.3,245Zm0,346.3c-20.8,26,-32.4,60,-32.4,95.2V829.4h64.8c0,0,0,-142.9,0,-142.9c-.1,-35.2,-11.6,-69.2,-32.4,-95.2ZM129.9,88.8L52,166.8h77.9Zm-82,52l-9.4,-9.4L26.2,143.6l9.4,9.5L21.7,167v17.1H34.6V517.6H21.7v17.3H34.6V864H21.7v17.3H34.6v333.5H62.8v13h65v-13h23.8V1028.6L173.2,894.3H119.1v-13h32.5V682.1L173.2,547.9H119.1v-13h32.5V335.7L173.2,201.4H119.1v-13h32.5V35.8l-5,5.1l-9.2,-9.2L125.3,44.1l9.2,9.2Z" class="g0_1" />
<path d="M62.8,502.5v13c0,3.6,2.9,6.5,6.5,6.5h52c3.5,0,6.5,-2.9,6.5,-6.5v-13c0,-3.6,-3,-6.5,-6.5,-6.5h-52c-3.6,0,-6.5,2.9,-6.5,6.5Z" class="g1_1" />
<path fill-rule="evenodd" d="M74.7,211.6c0,0,.8,.3,1.5,.7c1.2,.6,2.4,1.4,2.4,1.4l-1.4,2.6l2.5,2.3L82,217.3c0,0,.6,.7,1,1.4c.7,1.2,1.3,2.4,1.3,2.4l-2.5,1.4l.8,3.2l3,.2v4.2c0,0,-.9,.1,-1.8,.1c-.6,0,-1.2,0,-1.2,0c0,0,-.2,1.3,-.5,2.3c-.2,.5,-.4,.9,-.4,.9c0,0,.7,.5,1.4,.9c.5,.3,1.1,.6,1.1,.6c0,0,-.4,1,-.8,1.9c-.5,.9,-1.4,2,-1.4,2l-2.5,-1.4c0,0,-.3,.2,-.5,.5c-.7,.8,-1.9,1.8,-1.9,1.8c0,0,.9,1.4,1.2,2.1c.1,.2,.2,.4,.2,.4c0,0,-.7,.6,-1.5,1.1c-1,.6,-2.3,1.2,-2.3,1.2l-1.4,-2.6c0,0,-1,.4,-2,.6c-.6,.1,-1.2,.2,-1.2,.2v2.9c0,0,-1,.2,-1.8,.3c-.3,0,-.5,0,-.5,0v3.8c0,0,-1.6,-.1,-2.6,-.2c-4.6,-.4,-9.3,-2.6,-12.4,-5.4c-4.1,-3.8,-6.3,-8.5,-6.8,-14c-.1,-.6,-.1,-3.4,0,-4c.6,-7.5,4.9,-14.1,11.7,-17.5c1.7,-.8,3.2,-1.2,5.1,-1.7c.5,-.1,3,-.5,3.4,-.5c.7,0,1.6,0,1.6,0v3.8c0,0,.5,-.1,.9,0c.7,0,1.4,.2,1.4,.2l-.1,2.7l3.2,.9Z" class="g2_1" />
<path fill-rule="evenodd" d="M58.8,216.5L56.3,219l-2.7,-1.1c0,0,-.5,.7,-.9,1.4c-.5,.8,-.9,1.6,-.9,1.6c0,0,.3,.2,.5,.3c.9,.6,2,1.2,2,1.2l-1.1,3.8H50.5c0,0,-.1,.4,-.1,.8c-.1,1,0,2.9,0,2.9h2.8c0,0,.2,.4,.4,.9c.4,1.4,.7,2.9,.7,2.9c0,0,-.9,.5,-1.7,1c-.4,.2,-.7,.5,-.7,.5c0,0,.6,1.2,1.2,2.2c.3,.5,.6,.9,.6,.9l2.6,-1.4c0,0,.2,.3,.5,.6c.7,.9,2.2,2.2,2.2,2.2c0,0,-1,1.5,-1.3,2.1c-.2,.4,0,.5,.7,.9c.7,.4,2.3,1.2,2.3,1.2l1.5,-2.4l3.7,.9v3h1.8v-5.8H66.5v-1.1h-.4v1.1H64.7l-.1,-1c0,0,-.1,.1,-.2,.2c0,.1,0,.8,0,.8c0,0,-.2,0,-.4,0c-.5,.1,-1,0,-1,0c0,0,0,-.8,.1,-1.3c0,-.3,.1,-.7,.2,-1.3c.2,-.5,.4,-1.2,.4,-1.2c0,0,-.6,.2,-.9,.3c-.8,.2,-1.3,.1,-1.9,-.4c-.2,-.1,-.3,-.3,-.4,-.5c-.2,-.4,-.3,-1.5,-.6,-1.9c-.3,-.8,-.6,-.9,-.6,-1.6c.1,-.1,.1,-.3,.2,-.4c.1,-.4,.5,-.8,.7,-1.1c.2,-.5,0,-1.8,-.2,-2.6c-.2,-.6,-.5,-1.2,-.7,-1.9c-.5,-1.6,-.2,-3.5,.6,-5c1,-1.9,3.2,-3.6,5.6,-4.1c.8,-.2,2.2,-.3,2.2,-.3v-5.7H66c0,0,0,.6,-.1,1.1c0,.9,0,1.8,0,1.8c0,0,-.7,.1,-1.3,.3c-.8,.1,-1.5,.4,-2.2,.6q-.2,0,-.2,0c-.1,0,-.1,-.1,-.2,-.1c-.4,-.6,-1.3,-2.3,-1.3,-2.3c0,0,-1.6,.9,-2.5,1.4c-.4,.3,-.5,.4,-.5,.5c.1,.3,.6,1.1,.8,1.6c.1,0,.3,.6,.4,.8q0,.1,-.1,.2Z" class="g3_1" />
<path fill-rule="evenodd" d="M69,236.3l-1.1,-1c0,0,-.2,3.1,-.1,3.8c0,.2,.1,.5,.1,.5H69v-1.2l.5,.3v.9h1.4c0,0,-.1,-.8,-.1,-.9c.1,-.1,.3,-.1,.3,0c.1,.1,.1,.6,.1,.7q0,.2,.1,.2q.1,0,.2,0c.4,0,1.1,0,1.1,0c0,0,0,-.2,0,-.4c0,-.4,-.2,-1.3,-.3,-1.8c-.2,-.7,-.5,-1.8,-.5,-1.8c0,0,.7,.4,1.1,.5c.8,.2,1.4,0,2,-.7c.1,-.1,.2,-.3,.3,-.5c.1,-.4,.1,-.8,.3,-1.3c.5,-1.3,1.1,-1.4,.5,-2.4c-.3,-.5,-.6,-.9,-.8,-1.2c-.1,-.3,.1,-1.2,.2,-1.8c.2,-1,1,-2.8,1.1,-3.3c.2,-1.9,-.6,-4.2,-1.9,-5.6c-1.3,-1.5,-2.9,-2.3,-4.7,-2.7c-.3,-.1,-.6,-.2,-1,-.2c-.5,0,-1.1,0,-1.1,0V233q0,.1,.1,.2c.5,.7,1.1,1.8,1.1,2.6c0,.2,0,.5,0,.5Z" class="g3_1" />
<path fill-rule="evenodd" d="M69.3,231.7l3.2,-1.2q.2,-.1,.3,-.1c.4,.1,1.1,.3,1.3,.6c.2,.4,-.1,1.5,-.3,1.8c-.2,.4,-.6,.9,-.9,.9c-.5,.1,-2,-.4,-2.7,-.7c-.6,-.2,-1.4,-.4,-1.3,-.8c0,-.1,.1,-.3,.2,-.4l.2,-.1Z" class="g2_1" />
<path fill-rule="evenodd" d="M66,231.6l-3,-1.1q-.1,-.1,-.3,0c-.5,0,-1.2,.4,-1.3,.9c0,.4,.3,1.5,.6,1.8c.3,.4,.6,.5,1,.5c.4,-.1,2,-.5,2.5,-.7c.3,-.2,1.2,-.7,1.2,-.7c0,-.2,-.1,-.4,-.4,-.6q-.1,-.1,-.3,-.1Z" class="g3_1" />
<path fill-rule="evenodd" d="M67.8,233.5c0,0,0,-.1,0,-.1c0,0,-.1,0,-.1,0c-.2,.1,-.5,.5,-.6,.6c-.1,.2,-.2,.5,-.3,.8c-.2,.6,-.3,1.4,-.3,1.4c0,0,.1,-.1,.3,-.1c.6,-.3,1,-.8,1,-1.2c.1,-.4,0,-1.4,0,-1.4Z" class="g3_1" />
<path fill-rule="evenodd" d="M74.7,558.1c0,0,.8,.3,1.5,.7c1.2,.6,2.4,1.4,2.4,1.4l-1.4,2.6l2.5,2.3L82,563.8c0,0,.6,.7,1,1.4c.7,1.1,1.3,2.4,1.3,2.4l-2.5,1.3l.8,3.3l3,.2v4.2c0,0,-.9,.1,-1.8,.1c-.6,0,-1.2,0,-1.2,0c0,0,-.2,1.3,-.5,2.3c-.2,.5,-.4,.9,-.4,.9c0,0,.7,.5,1.4,.9c.5,.3,1.1,.6,1.1,.6c0,0,-.4,.9,-.8,1.8c-.5,1,-1.4,2.1,-1.4,2.1l-2.5,-1.5c0,0,-.3,.3,-.5,.6c-.7,.8,-1.9,1.8,-1.9,1.8c0,0,.9,1.4,1.2,2c.1,.3,.2,.5,.2,.5c0,0,-.7,.6,-1.5,1.1c-1,.6,-2.3,1.1,-2.3,1.1l-1.4,-2.5c0,0,-1,.4,-2,.6c-.6,.1,-1.2,.2,-1.2,.2v2.9c0,0,-1,.2,-1.8,.2c-.3,.1,-.5,0,-.5,0v3.9c0,0,-1.6,-.1,-2.6,-.2c-4.6,-.4,-9.3,-2.6,-12.4,-5.5C48.7,586.8,46.5,582.1,46,576.6c-.1,-.6,-.1,-3.4,0,-4c.6,-7.5,4.9,-14.1,11.7,-17.5c1.7,-.8,3.2,-1.2,5.1,-1.7c.5,-.2,3,-.5,3.4,-.5c.7,-.1,1.6,0,1.6,0v3.8c0,0,.5,-.1,.9,0c.7,0,1.4,.2,1.4,.2l-.1,2.7l3.2,.9Z" class="g2_1" />
<path fill-rule="evenodd" d="M58.8,563l-2.5,2.5l-2.7,-1.1c0,0,-.5,.7,-.9,1.4c-.5,.8,-.9,1.6,-.9,1.6c0,0,.3,.1,.5,.3c.9,.6,2,1.1,2,1.1l-1.1,3.8H50.5c0,0,-.1,.5,-.1,.9c-.1,.9,0,2.9,0,2.9h2.8c0,0,.2,.4,.4,.9c.4,1.4,.7,2.9,.7,2.9c0,0,-.9,.4,-1.7,1c-.4,.2,-.7,.5,-.7,.5c0,0,.6,1.2,1.2,2.2c.3,.5,.6,.9,.6,.9l2.6,-1.4c0,0,.2,.3,.5,.5c.7,.9,2.2,2.2,2.2,2.2c0,0,-1,1.6,-1.3,2.2c-.2,.4,0,.5,.7,.9c.7,.4,2.3,1.2,2.3,1.2L62.2,588l3.7,.9v3h1.8v-5.8H66.5V585h-.4v1.1H64.7l-.1,-1c0,0,-.1,0,-.2,.1c0,.2,0,.8,0,.8c0,0,-.2,.1,-.4,.1c-.5,.1,-1,0,-1,0c0,0,0,-.8,.1,-1.3c0,-.4,.1,-.7,.2,-1.3c.2,-.5,.4,-1.2,.4,-1.2c0,0,-.6,.2,-.9,.3c-.8,.2,-1.3,.1,-1.9,-.4c-.2,-.2,-.3,-.3,-.4,-.5c-.2,-.5,-.3,-1.5,-.6,-2c-.3,-.7,-.6,-.8,-.6,-1.5c.1,-.2,.1,-.3,.2,-.4c.1,-.4,.5,-.8,.7,-1.1c.2,-.5,0,-1.8,-.2,-2.6c-.2,-.6,-.5,-1.3,-.7,-1.9c-.5,-1.6,-.2,-3.5,.6,-5c1,-1.9,3.2,-3.7,5.6,-4.1c.8,-.2,2.2,-.4,2.2,-.4V557l-1.7,.1c0,0,0,.5,-.1,1.1c0,.9,0,1.8,0,1.8c0,0,-.7,.1,-1.3,.2c-.8,.2,-1.5,.5,-2.2,.7q-.2,0,-.2,0q-.1,-.1,-.2,-.1c-.4,-.6,-1.3,-2.3,-1.3,-2.3c0,0,-1.6,.9,-2.5,1.4c-.4,.3,-.5,.4,-.5,.5c.1,.3,.6,1,.8,1.6c.1,0,.3,.6,.4,.8q0,.1,-.1,.2Z" class="g3_1" />
<path fill-rule="evenodd" d="M69,582.8l-1.1,-1c0,0,-.2,3.1,-.1,3.8c0,.2,.1,.5,.1,.5H69v-1.2l.5,.2v1h1.4c0,0,-.1,-.8,-.1,-1c.1,0,.3,-.1,.3,0c.1,.2,.1,.7,.1,.8c0,.1,0,.2,.1,.2q.1,0,.2,0c.4,0,1.1,0,1.1,0c0,0,0,-.2,0,-.4c0,-.4,-.2,-1.3,-.3,-1.8c-.2,-.7,-.5,-1.8,-.5,-1.8c0,0,.7,.3,1.1,.5c.8,.2,1.4,0,2,-.7c.1,-.2,.2,-.3,.3,-.5c.1,-.4,.1,-.8,.3,-1.3c.5,-1.4,1.1,-1.4,.5,-2.5c-.3,-.4,-.6,-.8,-.8,-1.1c-.1,-.4,.1,-1.2,.2,-1.8c.2,-1,1,-2.8,1.1,-3.4c.2,-1.8,-.6,-4.1,-1.9,-5.6c-1.3,-1.5,-2.9,-2.2,-4.7,-2.6c-.3,-.1,-.6,-.2,-1,-.2c-.5,0,-1.1,0,-1.1,0v16.5q0,.2,.1,.3c.5,.7,1.1,1.8,1.1,2.6c0,.2,0,.5,0,.5Z" class="g3_1" />
<path fill-rule="evenodd" d="M69.3,578.2l3.2,-1.3q.2,0,.3,0c.4,0,1.1,.3,1.3,.6c.2,.4,-.1,1.4,-.3,1.8c-.2,.4,-.6,.8,-.9,.9c-.5,.1,-2,-.5,-2.7,-.7c-.6,-.2,-1.4,-.4,-1.3,-.8c0,-.1,.1,-.3,.2,-.4q0,-.1,.2,-.1Z" class="g2_1" />
<path fill-rule="evenodd" d="M66,578.1L63,577q-.1,-.1,-.3,-.1c-.5,.1,-1.2,.5,-1.3,.9c0,.5,.3,1.5,.6,1.8c.3,.5,.6,.6,1,.6c.4,-.1,2,-.5,2.5,-.7c.3,-.2,1.2,-.7,1.2,-.7c0,-.2,-.1,-.4,-.4,-.6q-.1,-.1,-.3,-.1Z" class="g3_1" />
<path fill-rule="evenodd" d="M67.8,579.9c0,0,0,.1,0,0c0,0,-.1,0,-.1,0c-.2,0,-.5,.5,-.6,.6c-.1,.2,-.2,.4,-.3,.8c-.2,.5,-.3,1.4,-.3,1.4c0,0,.1,-.1,.3,-.1c.6,-.3,1,-.8,1,-1.2c.1,-.5,0,-1.5,0,-1.5Z" class="g3_1" />
<path d="M95.3,937.8c-20.8,26,-32.4,59.9,-32.4,95.2v142.8h64.8c0,0,0,-142.8,0,-142.8c-.1,-35.3,-11.6,-69.2,-32.4,-95.2Z" class="g0_1" />
<path d="M62.8,850.6v13c0,3.6,2.9,6.5,6.5,6.5h52c3.5,0,6.5,-2.9,6.5,-6.5v-13c0,-3.6,-3,-6.5,-6.5,-6.5h-52c-3.6,0,-6.5,2.9,-6.5,6.5Z" class="g1_1" />
<path fill-rule="evenodd" d="M74.7,906.1c0,0,.8,.3,1.5,.7c1.2,.6,2.4,1.4,2.4,1.4l-1.4,2.6l2.5,2.4L82,911.8c0,0,.6,.7,1,1.5c.7,1.1,1.3,2.3,1.3,2.3L81.8,917l.8,3.3l3,.1v4.2c0,0,-.9,.1,-1.8,.2c-.6,0,-1.2,0,-1.2,0c0,0,-.2,1.2,-.5,2.2c-.2,.5,-.4,1,-.4,1c0,0,.7,.4,1.4,.8c.5,.3,1.1,.6,1.1,.6c0,0,-.4,1,-.8,1.9c-.5,.9,-1.4,2,-1.4,2l-2.5,-1.4c0,0,-.3,.3,-.5,.5c-.7,.8,-1.9,1.8,-1.9,1.8c0,0,.9,1.4,1.2,2.1c.1,.2,.2,.5,.2,.5c0,0,-.7,.5,-1.5,1c-1,.6,-2.3,1.2,-2.3,1.2l-1.4,-2.6c0,0,-1,.4,-2,.6c-.6,.2,-1.2,.2,-1.2,.2v3c0,0,-1,.2,-1.8,.2c-.3,0,-.5,0,-.5,0v3.8c0,0,-1.6,-.1,-2.6,-.2c-4.6,-.4,-9.3,-2.5,-12.4,-5.4c-4.1,-3.8,-6.3,-8.5,-6.8,-14c-.1,-.5,-.1,-3.4,0,-3.9c.6,-7.6,4.9,-14.2,11.7,-17.5c1.7,-.9,3.2,-1.3,5.1,-1.8c.5,-.1,3,-.5,3.4,-.5c.7,0,1.6,0,1.6,0v3.8c0,0,.5,0,.9,0c.7,0,1.4,.2,1.4,.2l-.1,2.8l3.2,.9Z" class="g2_1" />
<path fill-rule="evenodd" d="M58.8,911.1l-2.5,2.5l-2.7,-1.2c0,0,-.5,.7,-.9,1.4c-.5,.8,-.9,1.6,-.9,1.6c0,0,.3,.2,.5,.3c.9,.6,2,1.2,2,1.2l-1.1,3.8H50.5c0,0,-.1,.4,-.1,.9c-.1,.9,0,2.8,0,2.8h2.8c0,0,.2,.5,.4,1c.4,1.3,.7,2.9,.7,2.9c0,0,-.9,.4,-1.7,.9c-.4,.2,-.7,.5,-.7,.5c0,0,.6,1.2,1.2,2.3c.3,.4,.6,.8,.6,.8l2.6,-1.3c0,0,.2,.2,.5,.5c.7,.9,2.2,2.2,2.2,2.2c0,0,-1,1.6,-1.3,2.2c-.2,.3,0,.4,.7,.8c.7,.5,2.3,1.3,2.3,1.3L62.2,936l3.7,1v3h1.8v-5.8H66.5v-1.1l-.4,-.1v1.2H64.7l-.1,-1.1c0,0,-.1,.1,-.2,.2c0,.2,0,.8,0,.8c0,0,-.2,.1,-.4,.1c-.5,0,-1,-.1,-1,-.1c0,0,0,-.7,.1,-1.2c0,-.4,.1,-.8,.2,-1.4c.2,-.4,.4,-1.2,.4,-1.2c0,0,-.6,.2,-.9,.3c-.8,.2,-1.3,.1,-1.9,-.4c-.2,-.1,-.3,-.2,-.4,-.4c-.2,-.5,-.3,-1.6,-.6,-2c-.3,-.8,-.6,-.8,-.6,-1.6c.1,-.1,.1,-.2,.2,-.4c.1,-.3,.5,-.7,.7,-1.1c.2,-.5,0,-1.8,-.2,-2.5c-.2,-.7,-.5,-1.3,-.7,-1.9c-.5,-1.6,-.2,-3.6,.6,-5.1c1,-1.8,3.2,-3.6,5.6,-4.1c.8,-.1,2.2,-.3,2.2,-.3v-5.7H66c0,0,0,.6,-.1,1.2c0,.8,0,1.7,0,1.7c0,0,-.7,.2,-1.3,.3c-.8,.2,-1.5,.4,-2.2,.6q-.2,.1,-.2,0q-.1,0,-.2,-.1c-.4,-.6,-1.3,-2.2,-1.3,-2.2c0,0,-1.6,.8,-2.5,1.4c-.4,.2,-.5,.3,-.5,.5c.1,.3,.6,1,.8,1.5c.1,.1,.3,.6,.4,.8c0,.1,0,.2,-.1,.3Z" class="g3_1" />
<path fill-rule="evenodd" d="M69,930.8l-1.1,-1c0,0,-.2,3.2,-.1,3.8c0,.3,.1,.5,.1,.5l1.1,.1V933l.5,.2v1h1.4c0,0,-.1,-.9,-.1,-1c.1,-.1,.3,-.1,.3,0c.1,.1,.1,.7,.1,.8q0,.1,.1,.1q.1,.1,.2,.1c.4,0,1.1,-.1,1.1,-.1c0,0,0,-.2,0,-.4c0,-.3,-.2,-1.3,-.3,-1.7c-.2,-.7,-.5,-1.8,-.5,-1.8c0,0,.7,.3,1.1,.4c.8,.3,1.4,0,2,-.7c.1,-.1,.2,-.3,.3,-.5c.1,-.3,.1,-.8,.3,-1.3c.5,-1.3,1.1,-1.3,.5,-2.4c-.3,-.4,-.6,-.8,-.8,-1.2c-.1,-.3,.1,-1.2,.2,-1.7c.2,-1.1,1,-2.9,1.1,-3.4c.2,-1.9,-.6,-4.2,-1.9,-5.6c-1.3,-1.5,-2.9,-2.2,-4.7,-2.7c-.3,-.1,-.6,-.2,-1,-.2c-.5,0,-1.1,0,-1.1,0v16.6c0,.1,0,.2,.1,.3c.5,.7,1.1,1.7,1.1,2.5c0,.3,0,.5,0,.5Z" class="g3_1" />
<path fill-rule="evenodd" d="M69.3,926.2L72.5,925q.2,-.1,.3,-.1c.4,.1,1.1,.3,1.3,.7c.2,.4,-.1,1.4,-.3,1.7c-.2,.4,-.6,.9,-.9,1c-.5,.1,-2,-.5,-2.7,-.7c-.6,-.2,-1.4,-.5,-1.3,-.9c0,0,.1,-.3,.2,-.4l.2,-.1Z" class="g2_1" />
<path fill-rule="evenodd" d="M66,926.1L63,925q-.1,0,-.3,0c-.5,0,-1.2,.4,-1.3,.9c0,.4,.3,1.5,.6,1.8c.3,.4,.6,.6,1,.5c.4,0,2,-.5,2.5,-.7c.3,-.1,1.2,-.6,1.2,-.7c0,-.1,-.1,-.4,-.4,-.6q-.1,0,-.3,-.1Z" class="g3_1" />
<path fill-rule="evenodd" d="M67.8,928c0,0,-.1,-.1,-.1,0c-.2,0,-.5,.4,-.6,.6c-.1,.2,-.2,.4,-.3,.7c-.2,.6,-.3,1.4,-.3,1.4c0,0,.1,0,.3,-.1c.6,-.3,1,-.8,1,-1.1c.1,-.5,0,-1.5,0,-1.5Z" class="g3_1" />
<path d="M452.4,234.9c20.8,26,32.3,60,32.4,95.2V473H420c0,0,0,-142.9,0,-142.9c0,-35.2,11.6,-69.2,32.4,-95.2Zm0,346.4c20.8,26,32.3,59.9,32.4,95.1V819.3H420c0,0,0,-142.9,0,-142.9c0,-35.2,11.6,-69.1,32.4,-95.1ZM417.7,78.8l78,77.9h-78Zm82.1,51.9l9.4,-9.4l12.2,12.3l-9.3,9.4L526,157v17H513V507.5h13v17.3H513V853.9h13v17.4H513v333.4H484.9v13h-65v-13H396.1V1018.5L374.4,884.3h54.2v-13H396.1V672.1L374.4,537.8h54.2v-13H396.1V325.6L374.4,191.4h54.2v-13H396.1V25.7l5,5.1l9.2,-9.1l12.1,12.4l-9.2,9.1Z" class="g0_1" />
<path d="M484.9,492.5v12.9c0,3.6,-2.9,6.5,-6.5,6.5h-52c-3.6,0,-6.5,-2.9,-6.5,-6.5V492.5c0,-3.6,2.9,-6.5,6.5,-6.5h52c3.6,0,6.5,2.9,6.5,6.5Z" class="g1_1" />
<path fill-rule="evenodd" d="M490.9,201.5c0,0,.7,.3,1.4,.7c1.2,.6,2.4,1.4,2.4,1.4l-1.4,2.6l2.5,2.4l2.4,-1.4c0,0,.5,.7,1,1.5c.7,1.1,1.3,2.3,1.3,2.3l-2.5,1.4l.7,3.3l3,.1V220c0,0,-.9,.1,-1.8,.2c-.6,0,-1.1,0,-1.1,0c0,0,-.3,1.2,-.6,2.2c-.2,.5,-.4,1,-.4,1c0,0,.7,.4,1.4,.8c.5,.3,1.1,.6,1.1,.6c0,0,-.3,1,-.8,1.9c-.5,.9,-1.4,2,-1.4,2l-2.5,-1.4c0,0,-.2,.3,-.5,.5c-.7,.8,-1.9,1.8,-1.9,1.8c0,0,1,1.4,1.3,2.1c.1,.2,.2,.5,.2,.5c0,0,-.8,.5,-1.6,1c-1,.6,-2.2,1.2,-2.2,1.2l-1.5,-2.6c0,0,-1,.4,-2,.6c-.6,.2,-1.2,.2,-1.2,.2v3c0,0,-1,.2,-1.8,.2c-.2,0,-.5,0,-.5,0v3.8c0,0,-1.5,-.1,-2.6,-.2C476.7,239,472,236.9,468.9,234c-4,-3.8,-6.3,-8.5,-6.8,-14c-.1,-.5,-.1,-3.4,0,-3.9c.7,-7.6,4.9,-14.2,11.7,-17.5c1.7,-.9,3.2,-1.3,5.1,-1.8c.5,-.1,3,-.5,3.5,-.5c.7,0,1.5,0,1.5,0v3.8c0,0,.5,0,1,0c.6,0,1.3,.2,1.3,.2v2.8l3.2,.9Z" class="g2_1" />
<path fill-rule="evenodd" d="M474.9,206.5l-2.5,2.5l-2.7,-1.2c0,0,-.5,.7,-.9,1.4c-.4,.8,-.8,1.6,-.8,1.6c0,0,.2,.2,.4,.3c.9,.6,2,1.2,2,1.2l-1,3.8h-2.8c0,0,-.1,.4,-.1,.9c-.1,.9,0,2.8,0,2.8h2.9c0,0,.1,.5,.3,1c.4,1.3,.7,2.9,.7,2.9c0,0,-.9,.4,-1.7,.9c-.4,.2,-.7,.5,-.7,.5c0,0,.6,1.2,1.3,2.3c.3,.4,.6,.8,.6,.8l2.5,-1.3c0,0,.2,.2,.5,.5c.8,.9,2.2,2.2,2.2,2.2c0,0,-1,1.6,-1.3,2.2c-.1,.3,0,.4,.7,.8c.8,.5,2.3,1.3,2.3,1.3l1.5,-2.5l3.7,1v3h1.9v-5.8h-1.3v-1.1l-.3,-.1v1.2h-1.5l-.1,-1.1c0,0,-.1,.1,-.1,.2c-.1,.2,0,.8,0,.8c0,0,-.3,.1,-.5,.1c-.4,0,-1,-.1,-1,-.1c0,0,.1,-.7,.1,-1.2c0,-.4,.1,-.8,.3,-1.4c.1,-.4,.3,-1.2,.3,-1.2c0,0,-.5,.2,-.9,.3c-.8,.2,-1.3,.1,-1.9,-.4c-.1,-.1,-.2,-.2,-.3,-.4c-.3,-.5,-.4,-1.6,-.6,-2c-.4,-.8,-.7,-.8,-.6,-1.6c0,-.1,0,-.2,.1,-.4c.2,-.3,.5,-.7,.7,-1.1c.2,-.5,.1,-1.8,-.2,-2.5c-.2,-.7,-.5,-1.3,-.7,-1.9c-.5,-1.6,-.2,-3.6,.6,-5.1c1,-1.8,3.2,-3.6,5.6,-4.1c.8,-.1,2.3,-.3,2.3,-.3v-5.7h-1.7c0,0,-.1,.6,-.2,1.2c0,.8,0,1.7,0,1.7c0,0,-.7,.2,-1.2,.3c-.9,.2,-1.6,.4,-2.3,.6c-.1,.1,-.2,.1,-.2,0q-.1,0,-.1,-.1c-.5,-.6,-1.3,-2.2,-1.3,-2.2c0,0,-1.6,.8,-2.6,1.4c-.4,.2,-.5,.3,-.5,.5c.1,.3,.6,1,.9,1.5c0,.1,.3,.6,.3,.8c0,.1,0,.2,-.1,.3Z" class="g3_1" />
<path fill-rule="evenodd" d="M485.2,226.2l-1.2,-1c0,0,-.1,3.2,-.1,3.8c.1,.3,.1,.5,.1,.5l1.2,.1v-1.2l.5,.2v1H487c0,0,-.1,-.9,0,-1c0,-.1,.2,-.1,.2,0c.1,.1,.1,.7,.1,.8q0,.1,.1,.1c.1,.1,.2,.1,.2,.1c.4,0,1.1,-.1,1.1,-.1c0,0,0,-.2,0,-.4c0,-.3,-.2,-1.3,-.3,-1.7c-.2,-.7,-.5,-1.8,-.5,-1.8c0,0,.7,.3,1.1,.4c.9,.3,1.4,0,2,-.7c.1,-.1,.2,-.3,.3,-.5c.1,-.3,.1,-.8,.3,-1.3c.5,-1.3,1.1,-1.3,.5,-2.4c-.2,-.4,-.6,-.8,-.7,-1.2c-.1,-.3,0,-1.2,.1,-1.7c.3,-1.1,1,-2.9,1.1,-3.4c.3,-1.9,-.5,-4.2,-1.9,-5.6c-1.3,-1.5,-2.8,-2.2,-4.6,-2.7c-.4,-.1,-.7,-.2,-1.1,-.2c-.5,0,-1.1,0,-1.1,0v16.6c0,.1,.1,.2,.1,.3c.5,.7,1.1,1.7,1.2,2.5c0,.3,0,.5,0,.5Z" class="g3_1" />
<path fill-rule="evenodd" d="M485.4,221.6l3.3,-1.2q.1,-.1,.3,-.1c.3,.1,1,.3,1.2,.7c.2,.4,-.1,1.4,-.2,1.7c-.2,.4,-.7,.9,-.9,1c-.6,.1,-2.1,-.5,-2.8,-.7c-.5,-.2,-1.4,-.5,-1.3,-.9c0,0,.1,-.3,.2,-.4c0,0,.1,0,.2,-.1Z" class="g2_1" />
<path fill-rule="evenodd" d="M482.2,221.5l-3.1,-1.1q-.1,0,-.3,0c-.5,0,-1.2,.4,-1.3,.9c0,.4,.3,1.5,.6,1.8c.3,.4,.6,.6,1,.5c.4,0,2,-.5,2.5,-.7c.3,-.1,1.2,-.6,1.2,-.7c.1,-.1,-.1,-.4,-.4,-.6q-.1,0,-.2,-.1Z" class="g3_1" />
<path fill-rule="evenodd" d="M483.9,223.4c0,0,0,-.1,-.1,0c-.1,0,-.4,.4,-.5,.6c-.2,.2,-.3,.4,-.4,.7c-.1,.6,-.3,1.4,-.3,1.4c0,0,.2,0,.3,-.1c.6,-.3,1,-.8,1,-1.1c.1,-.5,0,-1.5,0,-1.5Z" class="g3_1" />
<path fill-rule="evenodd" d="M490.9,548c0,0,.7,.3,1.4,.7c1.2,.6,2.4,1.4,2.4,1.4l-1.4,2.6l2.5,2.3l2.4,-1.3c0,0,.5,.7,1,1.4c.7,1.2,1.3,2.4,1.3,2.4l-2.5,1.4l.7,3.2l3,.2v4.2c0,0,-.9,.1,-1.8,.1c-.6,.1,-1.1,0,-1.1,0c0,0,-.3,1.3,-.6,2.3c-.2,.5,-.4,.9,-.4,.9c0,0,.7,.5,1.4,.9c.5,.3,1.1,.6,1.1,.6c0,0,-.3,1,-.8,1.9c-.5,.9,-1.4,2,-1.4,2l-2.5,-1.4c0,0,-.2,.2,-.5,.5c-.7,.8,-1.9,1.8,-1.9,1.8c0,0,1,1.4,1.3,2.1c.1,.2,.2,.5,.2,.5c0,0,-.8,.5,-1.6,1c-1,.6,-2.2,1.2,-2.2,1.2l-1.5,-2.6c0,0,-1,.4,-2,.6c-.6,.1,-1.2,.2,-1.2,.2v3c0,0,-1,.2,-1.8,.2c-.2,0,-.5,0,-.5,0v3.8c0,0,-1.5,-.1,-2.6,-.2c-4.6,-.4,-9.3,-2.5,-12.4,-5.4c-4,-3.8,-6.3,-8.5,-6.8,-14c-.1,-.6,-.1,-3.4,0,-4c.7,-7.5,4.9,-14.1,11.7,-17.4c1.7,-.9,3.2,-1.3,5.1,-1.8c.5,-.1,3,-.5,3.5,-.5c.7,0,1.5,0,1.5,0v3.8c0,0,.5,0,1,0c.6,0,1.3,.2,1.3,.2v2.8l3.2,.8Z" class="g2_1" />
<path fill-rule="evenodd" d="M474.9,552.9l-2.5,2.5l-2.7,-1.1c0,0,-.5,.7,-.9,1.4c-.4,.8,-.8,1.6,-.8,1.6c0,0,.2,.2,.4,.3c.9,.6,2,1.2,2,1.2l-1,3.8h-2.8c0,0,-.1,.4,-.1,.9c-.1,.9,0,2.8,0,2.8h2.9c0,0,.1,.5,.3,.9c.4,1.4,.7,2.9,.7,2.9c0,0,-.9,.5,-1.7,1c-.4,.2,-.7,.5,-.7,.5c0,0,.6,1.2,1.3,2.3c.3,.4,.6,.8,.6,.8l2.5,-1.4c0,0,.2,.3,.5,.6c.8,.9,2.2,2.2,2.2,2.2c0,0,-1,1.5,-1.3,2.1c-.1,.4,0,.5,.7,.9c.8,.4,2.3,1.3,2.3,1.3l1.5,-2.5l3.7,.9v3h1.9v-5.7h-1.3v-1.2h-.3v1.2h-1.5l-.1,-1.1c0,0,-.1,.1,-.1,.2c-.1,.1,0,.8,0,.8c0,0,-.3,0,-.5,.1c-.4,0,-1,-.1,-1,-.1c0,0,.1,-.8,.1,-1.3c0,-.3,.1,-.7,.3,-1.3c.1,-.5,.3,-1.2,.3,-1.2c0,0,-.5,.2,-.9,.3c-.8,.2,-1.3,.1,-1.9,-.4c-.1,-.1,-.2,-.3,-.3,-.5c-.3,-.4,-.4,-1.5,-.6,-1.9c-.4,-.8,-.7,-.9,-.6,-1.6c0,-.1,0,-.3,.1,-.4c.2,-.3,.5,-.7,.7,-1.1c.2,-.5,.1,-1.8,-.2,-2.6c-.2,-.6,-.5,-1.2,-.7,-1.9c-.5,-1.6,-.2,-3.5,.6,-5c1,-1.8,3.2,-3.6,5.6,-4.1c.8,-.2,2.3,-.3,2.3,-.3V547h-1.7c0,0,-.1,.6,-.2,1.2c0,.8,0,1.7,0,1.7c0,0,-.7,.2,-1.2,.3c-.9,.1,-1.6,.4,-2.3,.6c-.1,0,-.2,0,-.2,0c-.1,0,-.1,-.1,-.1,-.1c-.5,-.6,-1.3,-2.2,-1.3,-2.2c0,0,-1.6,.8,-2.6,1.3c-.4,.3,-.5,.4,-.5,.6c.1,.2,.6,1,.9,1.5c0,.1,.3,.6,.3,.8q0,.1,-.1,.2Z" class="g3_1" />
<path fill-rule="evenodd" d="M485.2,572.7l-1.2,-1c0,0,-.1,3.1,-.1,3.8c.1,.2,.1,.5,.1,.5l1.2,.1v-1.3l.5,.3v1H487c0,0,-.1,-.9,0,-1c0,-.1,.2,-.1,.2,0c.1,.1,.1,.6,.1,.7q0,.2,.1,.2c.1,0,.2,0,.2,0c.4,0,1.1,0,1.1,0c0,0,0,-.2,0,-.4c0,-.4,-.2,-1.3,-.3,-1.7c-.2,-.7,-.5,-1.9,-.5,-1.9c0,0,.7,.4,1.1,.5c.9,.2,1.4,0,2,-.7c.1,-.1,.2,-.3,.3,-.5c.1,-.4,.1,-.8,.3,-1.3c.5,-1.3,1.1,-1.4,.5,-2.4c-.2,-.5,-.6,-.8,-.7,-1.2c-.1,-.3,0,-1.2,.1,-1.8c.3,-1,1,-2.8,1.1,-3.3c.3,-1.9,-.5,-4.2,-1.9,-5.6c-1.3,-1.5,-2.8,-2.3,-4.6,-2.7c-.4,-.1,-.7,-.2,-1.1,-.2c-.5,0,-1.1,0,-1.1,0v16.6c0,.1,.1,.1,.1,.2c.5,.7,1.1,1.8,1.2,2.6c0,.2,0,.5,0,.5Z" class="g3_1" />
<path fill-rule="evenodd" d="M485.4,568.1l3.3,-1.2q.1,-.1,.3,-.1c.3,.1,1,.3,1.2,.7c.2,.3,-.1,1.4,-.2,1.7c-.2,.4,-.7,.9,-.9,.9c-.6,.2,-2.1,-.4,-2.8,-.7c-.5,-.2,-1.4,-.4,-1.3,-.8c0,-.1,.1,-.3,.2,-.4c0,0,.1,0,.2,-.1Z" class="g2_1" />
<path fill-rule="evenodd" d="M482.2,568l-3.1,-1.1q-.1,0,-.3,0c-.5,0,-1.2,.4,-1.3,.9c0,.4,.3,1.5,.6,1.8c.3,.4,.6,.6,1,.5c.4,-.1,2,-.5,2.5,-.7c.3,-.1,1.2,-.6,1.2,-.7c.1,-.2,-.1,-.4,-.4,-.6q-.1,-.1,-.2,-.1Z" class="g3_1" />
<path fill-rule="evenodd" d="M483.9,569.9v-.1h-.1c-.1,.1,-.4,.5,-.5,.6c-.2,.2,-.3,.5,-.4,.8c-.1,.6,-.3,1.4,-.3,1.4c0,0,.2,0,.3,-.1c.6,-.3,1,-.8,1,-1.2c.1,-.4,0,-1.4,0,-1.4Z" class="g3_1" />
<path d="M452.4,927.7c20.8,26,32.3,60,32.4,95.2v142.9H420c0,0,0,-142.9,0,-142.9c0,-35.2,11.6,-69.2,32.4,-95.2Z" class="g0_1" />
<path d="M484.9,840.5v13c0,3.6,-2.9,6.5,-6.5,6.5h-52c-3.6,0,-6.5,-2.9,-6.5,-6.5v-13c0,-3.6,2.9,-6.5,6.5,-6.5h52c3.6,0,6.5,2.9,6.5,6.5Z" class="g1_1" />
<path fill-rule="evenodd" d="M490.9,896c0,0,.7,.4,1.4,.7c1.2,.7,2.4,1.4,2.4,1.4l-1.4,2.6l2.5,2.4l2.4,-1.4c0,0,.5,.7,1,1.5c.7,1.1,1.3,2.4,1.3,2.4l-2.5,1.3l.7,3.3l3,.2v4.2c0,0,-.9,.1,-1.8,.1c-.6,0,-1.1,0,-1.1,0c0,0,-.3,1.2,-.6,2.3c-.2,.4,-.4,.9,-.4,.9c0,0,.7,.4,1.4,.8c.5,.4,1.1,.7,1.1,.7c0,0,-.3,.9,-.8,1.8c-.5,.9,-1.4,2,-1.4,2l-2.5,-1.4c0,0,-.2,.3,-.5,.6c-.7,.7,-1.9,1.8,-1.9,1.8c0,0,1,1.3,1.3,2c.1,.3,.2,.5,.2,.5c0,0,-.8,.6,-1.6,1c-1,.7,-2.2,1.2,-2.2,1.2l-1.5,-2.5c0,0,-1,.3,-2,.6c-.6,.1,-1.2,.2,-1.2,.2v2.9c0,0,-1,.2,-1.8,.2c-.2,0,-.5,0,-.5,0v3.8c0,0,-1.5,0,-2.6,-.1c-4.6,-.5,-9.3,-2.6,-12.4,-5.5c-4,-3.7,-6.3,-8.5,-6.8,-14c-.1,-.5,-.1,-3.3,0,-3.9c.7,-7.5,4.9,-14.1,11.7,-17.5c1.7,-.8,3.2,-1.2,5.1,-1.7c.5,-.2,3,-.6,3.5,-.6c.7,0,1.5,0,1.5,0v3.8c0,0,.5,0,1,0c.6,.1,1.3,.2,1.3,.2v2.8l3.2,.9Z" class="g2_1" />
<path fill-rule="evenodd" d="M474.9,901l-2.5,2.5l-2.7,-1.1c0,0,-.5,.6,-.9,1.4c-.4,.7,-.8,1.5,-.8,1.5c0,0,.2,.2,.4,.4c.9,.6,2,1.1,2,1.1l-1,3.8h-2.8c0,0,-.1,.4,-.1,.9c-.1,.9,0,2.8,0,2.8h2.9c0,0,.1,.5,.3,1c.4,1.3,.7,2.9,.7,2.9c0,0,-.9,.4,-1.7,.9c-.4,.3,-.7,.5,-.7,.5c0,0,.6,1.3,1.3,2.3c.3,.4,.6,.9,.6,.9l2.5,-1.4c0,0,.2,.3,.5,.5c.8,.9,2.2,2.2,2.2,2.2c0,0,-1,1.6,-1.3,2.2c-.1,.4,0,.5,.7,.8c.8,.5,2.3,1.3,2.3,1.3l1.5,-2.5l3.7,1v3h1.9v-5.8h-1.3V923l-.3,-.1v1.2h-1.5l-.1,-1c0,0,-.1,0,-.1,.1c-.1,.2,0,.8,0,.8c0,0,-.3,.1,-.5,.1c-.4,0,-1,0,-1,0c0,0,.1,-.8,.1,-1.3c0,-.4,.1,-.8,.3,-1.3c.1,-.5,.3,-1.3,.3,-1.3c0,0,-.5,.2,-.9,.3c-.8,.3,-1.3,.2,-1.9,-.3c-.1,-.2,-.2,-.3,-.3,-.5c-.3,-.5,-.4,-1.5,-.6,-2c-.4,-.7,-.7,-.8,-.6,-1.5c0,-.2,0,-.3,.1,-.4c.2,-.4,.5,-.8,.7,-1.2c.2,-.4,.1,-1.7,-.2,-2.5c-.2,-.6,-.5,-1.3,-.7,-1.9c-.5,-1.6,-.2,-3.6,.6,-5c1,-1.9,3.2,-3.7,5.6,-4.1c.8,-.2,2.3,-.4,2.3,-.4V895l-1.7,.1c0,0,-.1,.5,-.2,1.1c0,.9,0,1.8,0,1.8c0,0,-.7,.1,-1.2,.2c-.9,.2,-1.6,.4,-2.3,.7c-.1,0,-.2,0,-.2,0q-.1,-.1,-.1,-.2c-.5,-.5,-1.3,-2.2,-1.3,-2.2c0,0,-1.6,.8,-2.6,1.4c-.4,.2,-.5,.3,-.5,.5c.1,.3,.6,1,.9,1.6c0,0,.3,.6,.3,.8q0,.1,-.1,.2Z" class="g3_1" />
<path fill-rule="evenodd" d="M485.2,920.8l-1.2,-1c0,0,-.1,3.1,-.1,3.7c.1,.3,.1,.5,.1,.5l1.2,.1v-1.2l.5,.2v1H487c0,0,-.1,-.9,0,-1c0,-.1,.2,-.1,.2,0c.1,.1,.1,.7,.1,.8q0,.1,.1,.2c.1,0,.2,0,.2,0c.4,0,1.1,0,1.1,0c0,0,0,-.3,0,-.5c0,-.3,-.2,-1.2,-.3,-1.7c-.2,-.7,-.5,-1.8,-.5,-1.8c0,0,.7,.3,1.1,.4c.9,.3,1.4,0,2,-.6c.1,-.2,.2,-.3,.3,-.5c.1,-.4,.1,-.9,.3,-1.3c.5,-1.4,1.1,-1.4,.5,-2.5c-.2,-.4,-.6,-.8,-.7,-1.1c-.1,-.4,0,-1.3,.1,-1.8c.3,-1.1,1,-2.8,1.1,-3.4c.3,-1.8,-.5,-4.1,-1.9,-5.6c-1.3,-1.5,-2.8,-2.2,-4.6,-2.7c-.4,-.1,-.7,-.1,-1.1,-.1c-.5,-.1,-1.1,0,-1.1,0v16.5c0,.2,.1,.2,.1,.3c.5,.7,1.1,1.8,1.2,2.6c0,.2,0,.5,0,.5Z" class="g3_1" />
<path fill-rule="evenodd" d="M485.4,916.2l3.3,-1.3q.1,0,.3,0c.3,0,1,.3,1.2,.6c.2,.4,-.1,1.4,-.2,1.7c-.2,.5,-.7,.9,-.9,1c-.6,.1,-2.1,-.5,-2.8,-.7c-.5,-.2,-1.4,-.4,-1.3,-.8c0,-.1,.1,-.3,.2,-.4c0,-.1,.1,-.1,.2,-.1Z" class="g2_1" />
<path fill-rule="evenodd" d="M482.2,916l-3.1,-1q-.1,-.1,-.3,-.1c-.5,0,-1.2,.4,-1.3,.9c0,.4,.3,1.5,.6,1.8c.3,.5,.6,.6,1,.5c.4,0,2,-.5,2.5,-.7c.3,-.1,1.2,-.6,1.2,-.7c.1,-.1,-.1,-.3,-.4,-.5q-.1,-.1,-.2,-.2Z" class="g3_1" />
<path fill-rule="evenodd" d="M483.9,917.9h-.1c-.1,0,-.4,.4,-.5,.6c-.2,.2,-.3,.4,-.4,.8c-.1,.5,-.3,1.4,-.3,1.4c0,0,.2,-.1,.3,-.2c.6,-.2,1,-.7,1,-1.1c.1,-.5,0,-1.5,0,-1.5Z" class="g3_1" />
<path d="M273.5,726.9L234.9,853.1h77.2ZM321,571.3L282.5,697.5L321,823.7Zm-95.1,0V823.7L264.5,697.5Zm81,-16.9H295.1v-13H251.8v13H240l33.5,113.8ZM273.5,397.3L240,506.8h66.9ZM321,241.7L282.5,367.9L321,494.1Zm-95.1,0V494.1L264.5,367.9ZM312.4,208H295.1V195H251.8v13H234.5l39,130.5Zm-6.5,1013.4v12.9H241v-12.9H208.5V887.9h13V870.6h-13V541.4h13V524.1h-13V190.6h13V173.3H325.4v17.3h13V524.1h-13v17.3h13V870.6h-13v17.3h13v333.5Zm-32.4,-148l-38.6,126.2h77.2ZM321,917.8L282.5,1044L321,1170.2Zm-95.1,0v252.4L264.5,1044Zm81,-16.9H295.1v-13H251.8v13H240l33.5,113.8Z" class="g0_1" />
<path d="M711.9,154.7V90.6h-13v64.1Zm-116.9,0V90.6H582v64.1ZM679,62H614.9V49H679ZM733.5,44.7V183.3c0,9.6,-7.7,17.3,-17.3,17.3H577.6c-9.6,0,-17.3,-7.7,-17.3,-17.3V44.7c0,-9.6,7.7,-17.3,17.3,-17.3c0,0,138.6,0,138.6,0c9.6,0,17.3,7.7,17.3,17.3Z" class="g4_1" />
<path d="M591,432.1H573.7V414.8h12.9V292.1H573.7V274.8H591l38.6,78.6Zm47.6,-97L600,256.4h77.3Zm65,-60.3v17.3h-13V414.8h13v17.3H686.3L647.6,353.4l38.7,-78.6ZM672.1,440h-67l33.5,-68.2ZM712.2,234.8H565l-13,17V444.7l13,17H712.2l13,-17V251.8Z" class="g0_1" />

</svg>
